<svg xmlns="http://www.w3.org/2000/svg" width="649" height="649" viewBox="0 0 649 649" fill="none">
<path opacity="0.9" d="M324.1 644.6C501.107 644.6 644.6 501.107 644.6 324.1C644.6 147.093 501.107 3.6001 324.1 3.6001C147.093 3.6001 3.6001 147.093 3.6001 324.1C3.6001 501.107 147.093 644.6 324.1 644.6Z" stroke="url(#paint0_linear_18_5)" stroke-width="7.2"/>
<path d="M97.6803 185.793C127.538 175.559 158.023 188.791 167.361 216.036C179.812 252.364 158.05 297.034 148.52 334.128C118.239 310.678 73.6513 288.748 61.2008 252.421C51.8629 225.176 67.8227 196.026 97.6803 185.793Z" fill="#FF6A00"/>
<path opacity="0.85" d="M100.793 194.874C124.016 186.915 147.533 197.122 154.381 217.102C164.756 247.375 147.554 283.717 140.22 309.91C118.36 293.722 82.4817 275.573 72.1063 245.301C65.2585 225.321 77.5703 202.833 100.793 194.874Z" stroke="white" stroke-width="7.2"/>
<path d="M125.071 265.712C144.126 259.181 154.742 239.791 148.783 222.404C142.824 205.016 122.545 196.214 103.49 202.745C84.4354 209.276 73.8193 228.666 79.7787 246.054C85.7381 263.441 106.016 272.243 125.071 265.712Z" fill="#0B0B0D" stroke="white" stroke-width="7.2"/>
<g opacity="0.9">
<path d="M107.018 213.038L104.735 206.378" stroke="white" stroke-width="6" stroke-linecap="round"/>
<path d="M137.503 226.27L144.802 223.768" stroke="white" stroke-width="6" stroke-linecap="round"/>
<path d="M121.544 255.419L123.827 262.079" stroke="white" stroke-width="6" stroke-linecap="round"/>
<path d="M91.0583 242.188L83.7598 244.689" stroke="white" stroke-width="6" stroke-linecap="round"/>
</g>
<path d="M115.526 237.861C117.724 237.108 118.949 234.871 118.262 232.864C117.574 230.858 115.234 229.842 113.036 230.596C110.837 231.35 109.612 233.587 110.3 235.593C110.987 237.599 113.327 238.615 115.526 237.861Z" fill="#FF6A00"/>
<path d="M114.281 234.229L98.1875 226.213" stroke="#FF6A00" stroke-width="8.4" stroke-linecap="round"/>
<path opacity="0.95" d="M114.281 234.229L130.953 235.28" stroke="white" stroke-width="7.2" stroke-linecap="round"/>
<path fill-rule="evenodd" clip-rule="evenodd" d="M491.537 190.737L478.534 195.371L539.416 280.9C535.753 283.228 532.376 285.675 529.273 288.214C532.33 285.721 535.634 283.329 539.214 281.028C562.706 266.824 586.481 268.086 610.507 281.983L592.245 299.449L514.684 373.668C512.078 368.274 509.979 363.107 508.421 358.096C508.633 358.82 508.827 359.58 509.076 360.322L403.374 395.76C410.93 418.389 398.664 442.864 375.992 450.465C353.32 458.066 328.772 445.903 321.17 423.32L286.57 434.92C268.444 388.807 278.548 345.275 316.285 328.771L263.944 346.319C259.784 347.714 255.253 345.442 253.871 341.319L251.097 333.046C249.724 328.951 251.97 324.498 256.047 323.131L256.709 322.91L237.708 266.236C236.464 262.526 238.499 258.45 242.218 257.203L339.738 224.508C343.457 223.261 347.538 225.287 348.782 228.997L367.773 285.643L415.982 269.481C421.023 267.607 424.497 269.011 426.229 274.086L431.611 290.137L435.131 300.637C419.136 324.955 424.759 352.696 449.598 361.062L481.719 350.293C473.985 324.483 483.397 304.022 501.926 278.671L472.499 238.976C461.877 227.128 462.296 215.308 468.569 205.041C462.911 197.216 458.449 190.395 457.009 184.091L442.881 192.313C438.291 194.983 437.613 197.167 434.421 192.948C433.869 192.215 433.382 191.492 432.967 190.714C429.544 184.616 430.463 184.797 435.411 182.007L450.559 173.443L455.38 171.826L460.215 166.506C463.087 163.28 466.373 160.833 469.981 159.073L475.077 156.998C480.422 155.206 485.929 151.709 490.664 155.594C490.747 155.658 490.876 155.951 491.051 156.382C493.476 156.394 495.893 157.388 498.044 159.143C500.683 161.255 502.964 164.587 504.31 168.599C505.655 172.612 505.815 176.655 505.01 179.922C504.096 183.591 501.958 186.448 498.79 187.602C497.387 189.54 494.218 189.777 491.537 190.737ZM297.424 290.793L263.099 302.301L265.117 308.32L299.442 296.812L297.424 290.793ZM309.791 241.121L284.998 249.434L294.01 276.314L303.64 261.895L318.803 268.002L309.791 241.121ZM302.676 306.459L268.351 317.967L270.369 323.986L304.694 312.478L302.676 306.459ZM592.163 299.568L561.329 329.167L571.405 319.736C580.168 318.724 588.716 323.93 591.619 332.587C594.964 342.564 589.574 353.36 579.574 356.713C569.574 360.066 558.765 354.7 555.421 344.723C554.388 341.645 554.192 338.501 554.685 335.492L533.634 355.697C542.391 376.242 565.67 386.904 587.24 379.672C609.94 372.062 622.187 347.532 614.594 324.885C610.76 313.268 602.429 304.412 592.163 299.568ZM493.327 163.446C494.931 168.778 496.849 175.687 498.131 180.332C498.442 179.8 498.717 179.157 498.891 178.396C499.449 176.222 499.281 173.435 498.323 170.576C497.364 167.718 495.791 165.402 494.063 163.994C493.814 163.802 493.566 163.61 493.327 163.446ZM380.343 403.481L344.145 415.617C347.508 425.557 358.298 430.868 368.271 427.524C378.243 424.181 383.651 413.44 380.343 403.481Z" fill="url(#paint1_linear_18_5)"/>
<g opacity="0.55">
<path d="M110.226 385.444L212.601 352.6" stroke="white" stroke-width="12" stroke-linecap="round"/>
<path opacity="0.42" d="M95.4854 420.719L205.736 385.348" stroke="white" stroke-width="12" stroke-linecap="round"/>
<path opacity="0.35" d="M143.746 435.781L230.372 407.99" stroke="white" stroke-width="12" stroke-linecap="round"/>
<path opacity="0.25" d="M184.131 453.371L239.257 435.686" stroke="white" stroke-width="12" stroke-linecap="round"/>
</g>
<defs>
<linearGradient id="paint0_linear_18_5" x1="324.1" y1="644.6" x2="324.1" y2="3.6001" gradientUnits="userSpaceOnUse">
<stop stop-color="#FF6A00"/>
<stop offset="0.7" stop-color="#FFEA00"/>
</linearGradient>
<linearGradient id="paint1_linear_18_5" x1="389.842" y1="185.34" x2="468.357" y2="419.529" gradientUnits="userSpaceOnUse">
<stop stop-color="#FF6A00"/>
<stop offset="0.25" stop-color="white"/>
<stop offset="0.5" stop-color="#FF6A00"/>
<stop offset="0.75" stop-color="white"/>
<stop offset="1" stop-color="#FF6A00"/>
</linearGradient>
</defs>
</svg>